<?xml version="1.0" encoding="UTF-8"?>
<svg width="700pt" height="700pt" version="1.1" viewBox="0 0 700 700" xmlns="http://www.w3.org/2000/svg">
 <g>
  <path d="m157.5 35c-28.996 0-52.5 23.504-52.5 52.5v245c0 28.996 23.504 52.5 52.5 52.5h70c9.6641 0 17.5-7.8359 17.5-17.5v-175c0-9.6641 7.8359-17.5 17.5-17.5h175c9.6641 0 17.5-7.8359 17.5-17.5v-70c0-28.996-23.504-52.5-52.5-52.5z"/>
  <path d="m542.5 525c28.996 0 52.5-23.504 52.5-52.5v-245c0-28.996-23.504-52.5-52.5-52.5h-70c-9.6641 0-17.5 7.8359-17.5 17.5v175c0 9.6641-7.8359 17.5-17.5 17.5h-175c-9.6641 0-17.5 7.8359-17.5 17.5v70c0 28.996 23.504 52.5 52.5 52.5z"/>
 </g>
</svg>
